# xmcd
#
# Track frame offsets:
#	182
#	14450
#	40082
#	63347
#	83395
#	108720
#	127200
#	147740
#	179920
#	203167
#	219167
#
# Disc length: 3227 seconds
#
# Revision: 1
# Processed by: cddbd v1.5.2PL0 Copyright (c) Steve Scherf et al.
# Submitted via: EasyCDDAExtractor 11.0.3.1
#
DISCID=a50c990b
DTITLE=Indentity Crisis - The Spanish Afro
DYEAR=1994
DGENRE=Acid Funk
TTITLE0=The Spanish Afro
TTITLE1=Sing A Simple Soung (Old School Flavor)
TTITLE2=Island Girl
TTITLE3=Te Necesito
TTITLE4=Come To Me
TTITLE5=Honey
TTITLE6=Summer
TTITLE7=Kiss And Make Up
TTITLE8=I've Got What You Need
TTITLE9=Somos Hermanos
TTITLE10=Sing A Simple Song (Nes School Flavor Remix)
EXTD=
EXTT0=
EXTT1=
EXTT2=
EXTT3=
EXTT4=
EXTT5=
EXTT6=
EXTT7=
EXTT8=
EXTT9=
EXTT10=
PLAYORDER=
